<svg width="187" height="173" viewBox="0 0 187 173" fill="none" xmlns="http://www.w3.org/2000/svg">
<rect width="187" height="173" fill="#FFB432"/>
<path d="M99.972 69C100.74 68.1413 101.245 67.0795 101.426 65.9416C101.607 64.8037 101.456 63.6378 100.992 62.5831C100.528 61.5285 99.7702 60.6298 98.8091 59.9944C97.8479 59.359 96.7241 59.0138 95.572 59" stroke="#1E1E1E" stroke-width="4" stroke-linecap="round" stroke-linejoin="round"/>
<path d="M101.5 65C101.5 63.4087 102.132 61.8826 103.257 60.7574C104.383 59.6321 105.909 59 107.5 59H109.5C110.561 59 111.578 58.5786 112.328 57.8284C113.079 57.0783 113.5 56.0609 113.5 55V51C113.5 48.8783 112.657 46.8434 111.157 45.3431C109.657 43.8429 107.622 43 105.5 43V33" stroke="#1E1E1E" stroke-width="4" stroke-linecap="round" stroke-linejoin="round"/>
<path d="M105.5 51H105.52" stroke="#1E1E1E" stroke-width="4" stroke-linecap="round" stroke-linejoin="round"/>
<path d="M105.5 37C103.378 37 101.343 37.8429 99.8431 39.3431C98.3429 40.8434 97.5 42.8783 97.5 45C93.787 45 90.226 46.475 87.6005 49.1005C84.975 51.726 83.5 55.287 83.5 59C83.5 49 91.5 49 91.5 38C91.5 36.8181 91.2672 35.6478 90.8149 34.5558C90.3626 33.4639 89.6997 32.4718 88.864 31.636C88.0282 30.8003 87.0361 30.1374 85.9442 29.6851C84.8522 29.2328 83.6819 29 82.5 29C81.3181 29 80.1478 29.2328 79.0558 29.6851C77.9639 30.1374 76.9718 30.8003 76.136 31.636C75.3003 32.4718 74.6374 33.4639 74.1851 34.5558C73.7328 35.6478 73.5 36.8181 73.5 38C73.5 39.3261 74.0268 40.5979 74.9645 41.5355C75.9021 42.4732 77.1739 43 78.5 43C79.8261 43 81.0979 42.4732 82.0355 41.5355C82.9732 40.5979 83.5 39.3261 83.5 38C83.5 45 75.5 47 75.5 59C75.5 64.6 79.9 69 85.5 69H105.5" stroke="#1E1E1E" stroke-width="4" stroke-linecap="round" stroke-linejoin="round"/>
<path d="M40.6905 98.3821V93.8182H62.1934V98.3821H54.1777V120H48.7061V98.3821H40.6905ZM75.5527 111.639V100.364H80.9988V120H75.7701V116.433H75.5655C75.1223 117.584 74.3851 118.509 73.3539 119.207C72.3311 119.906 71.0826 120.256 69.6081 120.256C68.2956 120.256 67.1408 119.957 66.1436 119.361C65.1465 118.764 64.3667 117.916 63.8042 116.817C63.2502 115.717 62.9689 114.401 62.9604 112.866V100.364H68.4064V111.895C68.415 113.054 68.726 113.97 69.3397 114.643C69.9533 115.317 70.7757 115.653 71.807 115.653C72.4632 115.653 73.0769 115.504 73.6479 115.206C74.2189 114.899 74.6792 114.447 75.0286 113.851C75.3865 113.254 75.5613 112.517 75.5527 111.639ZM94.2271 120.384C92.2157 120.384 90.4856 119.957 89.0368 119.105C87.5964 118.244 86.4885 117.051 85.7129 115.526C84.9458 114 84.5623 112.244 84.5623 110.259C84.5623 108.247 84.9501 106.483 85.7257 104.966C86.5098 103.44 87.622 102.251 89.0623 101.399C90.5027 100.538 92.2157 100.108 94.2015 100.108C95.9146 100.108 97.4146 100.419 98.7015 101.041C99.9885 101.663 101.007 102.537 101.757 103.662C102.507 104.787 102.92 106.108 102.997 107.625H97.8578C97.7129 106.645 97.3294 105.857 96.7072 105.26C96.0936 104.655 95.2882 104.352 94.291 104.352C93.4473 104.352 92.71 104.582 92.0794 105.043C91.4572 105.494 90.9714 106.155 90.622 107.024C90.2725 107.893 90.0978 108.946 90.0978 110.182C90.0978 111.435 90.2683 112.5 90.6092 113.378C90.9586 114.256 91.4487 114.925 92.0794 115.385C92.71 115.845 93.4473 116.075 94.291 116.075C94.9132 116.075 95.4714 115.947 95.9657 115.692C96.4686 115.436 96.8819 115.065 97.2058 114.58C97.5382 114.085 97.7555 113.493 97.8578 112.803H102.997C102.912 114.303 102.503 115.624 101.77 116.766C101.045 117.899 100.044 118.786 98.7654 119.425C97.487 120.064 95.9743 120.384 94.2271 120.384ZM112.083 120.371C110.83 120.371 109.714 120.153 108.734 119.719C107.754 119.276 106.978 118.624 106.407 117.763C105.845 116.893 105.563 115.811 105.563 114.516C105.563 113.425 105.764 112.509 106.164 111.767C106.565 111.026 107.11 110.429 107.801 109.977C108.491 109.526 109.275 109.185 110.153 108.955C111.039 108.724 111.968 108.562 112.94 108.469C114.082 108.349 115.002 108.239 115.701 108.136C116.4 108.026 116.907 107.864 117.222 107.651C117.538 107.437 117.695 107.122 117.695 106.705V106.628C117.695 105.818 117.44 105.192 116.928 104.749C116.426 104.305 115.71 104.084 114.781 104.084C113.801 104.084 113.021 104.301 112.441 104.736C111.862 105.162 111.478 105.699 111.291 106.347L106.254 105.938C106.509 104.744 107.012 103.713 107.762 102.844C108.512 101.966 109.48 101.293 110.664 100.824C111.857 100.347 113.238 100.108 114.806 100.108C115.897 100.108 116.941 100.236 117.938 100.491C118.944 100.747 119.835 101.143 120.61 101.68C121.394 102.217 122.012 102.908 122.464 103.751C122.916 104.587 123.142 105.588 123.142 106.756V120H117.977V117.277H117.823C117.508 117.891 117.086 118.432 116.558 118.901C116.029 119.361 115.394 119.723 114.653 119.987C113.911 120.243 113.055 120.371 112.083 120.371ZM113.643 116.612C114.444 116.612 115.151 116.455 115.765 116.139C116.379 115.815 116.86 115.381 117.21 114.835C117.559 114.29 117.734 113.672 117.734 112.982V110.898C117.563 111.009 117.329 111.111 117.031 111.205C116.741 111.29 116.413 111.371 116.046 111.447C115.68 111.516 115.313 111.58 114.947 111.639C114.58 111.69 114.248 111.737 113.95 111.78C113.311 111.874 112.752 112.023 112.275 112.227C111.798 112.432 111.427 112.709 111.163 113.058C110.899 113.399 110.767 113.825 110.767 114.337C110.767 115.078 111.035 115.645 111.572 116.037C112.117 116.42 112.808 116.612 113.643 116.612ZM132.813 108.648V120H127.367V100.364H132.557V103.828H132.787C133.222 102.686 133.95 101.783 134.973 101.118C135.996 100.445 137.236 100.108 138.693 100.108C140.057 100.108 141.246 100.406 142.26 101.003C143.274 101.599 144.063 102.452 144.625 103.56C145.188 104.659 145.469 105.972 145.469 107.497V120H140.023V108.469C140.031 107.267 139.725 106.33 139.102 105.656C138.48 104.974 137.624 104.634 136.533 104.634C135.8 104.634 135.152 104.791 134.59 105.107C134.036 105.422 133.601 105.882 133.286 106.487C132.979 107.084 132.821 107.804 132.813 108.648ZM45.9272 144V126.545H52.8136C54.1317 126.545 55.2567 126.781 56.1886 127.253C57.1261 127.719 57.8391 128.381 58.3278 129.239C58.8221 130.091 59.0692 131.094 59.0692 132.247C59.0692 133.406 58.8192 134.403 58.3192 135.239C57.8192 136.068 57.0948 136.705 56.146 137.148C55.2028 137.591 54.0607 137.812 52.7198 137.812H48.109V134.847H52.1232C52.8278 134.847 53.413 134.75 53.8789 134.557C54.3448 134.364 54.6914 134.074 54.9187 133.688C55.1516 133.301 55.2681 132.821 55.2681 132.247C55.2681 131.668 55.1516 131.179 54.9187 130.781C54.6914 130.384 54.342 130.082 53.8704 129.878C53.4045 129.668 52.8164 129.562 52.1062 129.562H49.6175V144H45.9272ZM55.3533 136.057L59.6914 144H55.6175L51.3732 136.057H55.3533ZM70.0039 138.426V130.909H73.6346V144H70.1488V141.622H70.0124C69.717 142.389 69.2255 143.006 68.538 143.472C67.8562 143.937 67.0238 144.17 66.0408 144.17C65.1658 144.17 64.396 143.972 63.7312 143.574C63.0664 143.176 62.5465 142.611 62.1715 141.878C61.8022 141.145 61.6147 140.267 61.609 139.244V130.909H65.2397V138.597C65.2454 139.369 65.4528 139.98 65.8619 140.429C66.271 140.878 66.8192 141.102 67.5067 141.102C67.9442 141.102 68.3533 141.003 68.734 140.804C69.1147 140.599 69.4215 140.298 69.6545 139.901C69.8931 139.503 70.0096 139.011 70.0039 138.426ZM80.1694 136.432V144H76.5387V130.909H79.9989V133.219H80.1523C80.4421 132.457 80.9279 131.855 81.6097 131.412C82.2915 130.963 83.1183 130.739 84.0898 130.739C84.9989 130.739 85.7915 130.938 86.4677 131.335C87.1438 131.733 87.6694 132.301 88.0444 133.04C88.4194 133.773 88.6069 134.648 88.6069 135.665V144H84.9762V136.312C84.9819 135.511 84.7773 134.886 84.3626 134.438C83.9478 133.983 83.3768 133.756 82.6495 133.756C82.1609 133.756 81.729 133.861 81.354 134.071C80.9847 134.281 80.695 134.588 80.4847 134.991C80.2802 135.389 80.1751 135.869 80.1694 136.432ZM95.0991 136.432V144H91.4684V130.909H94.9286V133.219H95.082C95.3718 132.457 95.8576 131.855 96.5394 131.412C97.2212 130.963 98.0479 130.739 99.0195 130.739C99.9286 130.739 100.721 130.938 101.397 131.335C102.074 131.733 102.599 132.301 102.974 133.04C103.349 133.773 103.537 134.648 103.537 135.665V144H99.9059V136.312C99.9116 135.511 99.707 134.886 99.2923 134.438C98.8775 133.983 98.3065 133.756 97.5792 133.756C97.0906 133.756 96.6587 133.861 96.2837 134.071C95.9144 134.281 95.6246 134.588 95.4144 134.991C95.2099 135.389 95.1048 135.869 95.0991 136.432ZM112.364 144.256C111.017 144.256 109.858 143.983 108.887 143.438C107.921 142.886 107.176 142.108 106.654 141.102C106.131 140.091 105.87 138.895 105.87 137.514C105.87 136.168 106.131 134.986 106.654 133.969C107.176 132.952 107.912 132.159 108.861 131.591C109.816 131.023 110.935 130.739 112.219 130.739C113.083 130.739 113.887 130.878 114.631 131.156C115.381 131.429 116.034 131.841 116.591 132.392C117.154 132.943 117.591 133.636 117.904 134.472C118.216 135.301 118.373 136.273 118.373 137.386V138.384H107.319V136.134H114.955C114.955 135.611 114.841 135.148 114.614 134.744C114.387 134.341 114.071 134.026 113.668 133.798C113.27 133.565 112.807 133.449 112.279 133.449C111.728 133.449 111.239 133.577 110.813 133.832C110.392 134.082 110.063 134.42 109.824 134.847C109.586 135.267 109.463 135.736 109.458 136.253V138.392C109.458 139.04 109.577 139.599 109.816 140.071C110.06 140.543 110.404 140.906 110.847 141.162C111.29 141.418 111.816 141.545 112.424 141.545C112.827 141.545 113.196 141.489 113.532 141.375C113.867 141.261 114.154 141.091 114.392 140.864C114.631 140.636 114.813 140.358 114.938 140.028L118.296 140.25C118.125 141.057 117.776 141.761 117.248 142.364C116.725 142.96 116.049 143.426 115.219 143.761C114.395 144.091 113.444 144.256 112.364 144.256ZM120.742 144V130.909H124.262V133.193H124.398C124.637 132.381 125.037 131.767 125.6 131.352C126.162 130.932 126.81 130.722 127.543 130.722C127.725 130.722 127.921 130.733 128.131 130.756C128.341 130.778 128.526 130.81 128.685 130.849V134.071C128.515 134.02 128.279 133.974 127.978 133.935C127.676 133.895 127.401 133.875 127.151 133.875C126.617 133.875 126.14 133.991 125.719 134.224C125.304 134.452 124.975 134.77 124.73 135.179C124.492 135.588 124.373 136.06 124.373 136.594V144H120.742ZM141.454 134.642L138.13 134.847C138.074 134.562 137.951 134.307 137.764 134.08C137.576 133.847 137.329 133.662 137.022 133.526C136.721 133.384 136.36 133.312 135.94 133.312C135.377 133.312 134.903 133.432 134.517 133.67C134.13 133.903 133.937 134.216 133.937 134.608C133.937 134.92 134.062 135.185 134.312 135.401C134.562 135.616 134.991 135.79 135.599 135.92L137.968 136.398C139.241 136.659 140.19 137.08 140.815 137.659C141.44 138.239 141.752 139 141.752 139.943C141.752 140.801 141.5 141.554 140.994 142.202C140.494 142.849 139.806 143.355 138.931 143.719C138.062 144.077 137.059 144.256 135.923 144.256C134.19 144.256 132.809 143.895 131.781 143.173C130.758 142.446 130.159 141.457 129.983 140.207L133.554 140.02C133.662 140.548 133.923 140.952 134.338 141.23C134.752 141.503 135.284 141.639 135.931 141.639C136.568 141.639 137.079 141.517 137.466 141.273C137.858 141.023 138.056 140.702 138.062 140.31C138.056 139.98 137.917 139.71 137.645 139.5C137.372 139.284 136.951 139.119 136.383 139.006L134.116 138.554C132.838 138.298 131.886 137.855 131.261 137.224C130.642 136.594 130.332 135.79 130.332 134.812C130.332 133.972 130.559 133.247 131.014 132.639C131.474 132.031 132.119 131.562 132.949 131.233C133.784 130.903 134.761 130.739 135.88 130.739C137.534 130.739 138.835 131.088 139.784 131.787C140.738 132.486 141.295 133.437 141.454 134.642Z" fill="#1E1E1E"/>
</svg>
